<svg width="828" height="428" viewBox="0 0 828 428" fill="none" xmlns="http://www.w3.org/2000/svg">
<g clip-path="url(#clip0_453_1344)">
<path d="M364.454 93.5791H49.0494C47.4751 90.615 46.6007 87.3295 46.4936 83.9747C46.3865 80.62 47.0494 77.2854 48.4314 74.2268C49.8135 71.1683 51.8779 68.4672 54.4661 66.331C57.0544 64.1947 60.0976 62.6802 63.3623 61.9036C73.6588 59.4601 85.2976 64.4719 94.6841 59.5928C101.967 55.8003 105.332 47.2422 106.881 39.1849C108.429 31.1276 108.869 22.6159 112.781 15.3997C119.355 3.28598 134.963 -2.12597 148.443 0.761208C161.924 3.64839 173.116 13.4692 180.486 25.1171C183.516 29.9063 186.27 35.3189 191.266 37.9921C197.034 41.0755 204.213 39.6058 210.137 36.8449C216.061 34.084 221.436 30.1139 227.642 28.0621C240.162 23.9179 255.132 28.9781 262.576 39.8705C267.9 47.6567 270.13 58.3765 278.491 62.7397C281.937 64.5375 285.929 64.912 289.807 65.0041C305.285 65.3786 321.19 61.7709 336 66.2782C349.052 70.2498 359.821 80.7962 364.454 93.5791Z" fill="#F3F5FD"/>
<path d="M805.574 176.441H555.875C557.288 166.953 562.476 158.159 570.405 153.865C580.211 148.553 592.128 150.121 603.192 151.492C614.256 152.862 626.467 153.632 635.548 147.166C640.117 143.913 643.348 139.172 647.049 134.953C657.623 122.884 674.295 114.628 689.765 118.889C697.55 121.033 704.193 126.047 711.573 129.321C719.329 132.745 727.806 134.215 736.261 133.602C744.979 132.956 753.654 130.106 762.303 131.383C773.266 133.015 782.245 141.063 788.745 150.044C794.904 158.553 799.303 166.804 805.574 176.441Z" fill="#F3F5FD"/>
<path d="M27.1953 428H828C819.227 405.618 803.023 386.631 780.177 380.997C746.761 372.769 711.398 395.396 678.056 386.888C659.113 382.06 644.201 367.988 628.53 356.304C569.411 312.215 488.396 299.187 418.44 322.522C381.873 334.713 348.554 356.034 311.096 365.098C262.659 376.823 212.004 367.099 162.191 365.497C113.679 363.938 44.1707 383.709 27.1953 428Z" fill="#F3F5FD"/>
<path d="M83.0508 134.483C83.0508 134.483 88.5664 131.558 87.3346 116.536L98.7302 114.423C98.7302 114.423 97.4499 127.891 103.214 132.167L83.0508 134.483Z" fill="#E98862"/>
<g opacity="0.15">
<path opacity="0.15" d="M100.88 129.351L91.4131 122.108L98.848 122.031C99.0634 124.576 99.7526 127.059 100.88 129.351Z" fill="black"/>
</g>
<path d="M80.8696 110.711C81.6585 115.269 84.1449 119.585 88.1641 121.056C92.9357 122.803 96.4699 122.922 101.971 122.922C109.478 122.922 109.23 115.091 109.44 107.199C109.654 99.2765 109.022 90.7776 106.055 88.0167C100.135 82.5063 82.7512 85.9956 80.6371 95.2129C79.5437 99.9813 80.1186 106.37 80.8696 110.711Z" fill="#E98862"/>
<path d="M114.645 84.7364C114.645 80.9681 109.956 74.7935 97.4471 83.3095L97.435 83.3181C94.1853 83.227 90.9386 83.582 87.7854 84.3732C82.0651 86.0854 74.8919 90.8817 76.7299 102.512C78.7841 115.492 84.1 118.957 86.779 120.549C87.4615 120.954 87.627 120.62 87.8638 119.866C88.6068 117.064 89.1382 114.209 89.4537 111.327C89.9216 108.523 90.1338 105.681 90.0877 102.838C90.0877 101.578 90.0942 96.9878 96.3444 96.935C99.86 96.9065 98.5455 97.0463 102.297 97.0463C102.832 97.0463 103.304 97.022 103.739 96.9835H103.744C116.699 96.9828 114.645 88.5053 114.645 84.7364Z" fill="#0F1011"/>
<path d="M98.7132 107.201C99.284 107.201 99.7467 106.738 99.7467 106.167C99.7467 105.596 99.284 105.134 98.7132 105.134C98.1424 105.134 97.6797 105.596 97.6797 106.167C97.6797 106.738 98.1424 107.201 98.7132 107.201Z" fill="#0F1011"/>
<path d="M106.867 106.532C107.438 106.532 107.901 106.069 107.901 105.498C107.901 104.927 107.438 104.464 106.867 104.464C106.297 104.464 105.834 104.927 105.834 105.498C105.834 106.069 106.297 106.532 106.867 106.532Z" fill="#0F1011"/>
<path d="M108.658 103.295H108.652L105.913 103.261C105.788 103.255 105.669 103.201 105.583 103.11C105.496 103.019 105.448 102.898 105.449 102.772C105.45 102.647 105.5 102.526 105.587 102.436C105.675 102.346 105.794 102.294 105.92 102.29H105.926L108.664 102.324C108.79 102.33 108.908 102.384 108.995 102.475C109.082 102.566 109.129 102.687 109.129 102.813C109.128 102.938 109.078 103.059 108.991 103.149C108.903 103.239 108.784 103.291 108.658 103.295Z" fill="#0F1011"/>
<path d="M96.4826 104.295C96.3633 104.295 96.248 104.252 96.1587 104.172C96.0694 104.093 96.0124 103.984 95.9984 103.866C95.9845 103.747 96.0147 103.627 96.0832 103.53C96.1517 103.432 96.2538 103.363 96.3699 103.336L99.0696 102.686C99.1322 102.669 99.1974 102.665 99.2615 102.674C99.3255 102.684 99.3872 102.705 99.4427 102.738C99.4983 102.772 99.5466 102.816 99.585 102.868C99.6233 102.92 99.6508 102.979 99.6659 103.042C99.6811 103.105 99.6835 103.17 99.673 103.234C99.6625 103.298 99.6394 103.359 99.6049 103.414C99.5705 103.469 99.5255 103.516 99.4725 103.553C99.4195 103.591 99.3597 103.617 99.2964 103.63L96.5967 104.28C96.5594 104.29 96.5211 104.294 96.4826 104.295Z" fill="#0F1011"/>
<path d="M93.337 108.696C93.3925 109.274 93.3325 109.858 93.1606 110.412C92.9887 110.967 92.7083 111.482 92.3356 111.928C91.963 112.373 91.5056 112.74 90.99 113.007C90.4744 113.274 89.9109 113.436 89.3322 113.483C88.7535 113.53 88.1712 113.462 87.6191 113.282C87.067 113.102 86.5562 112.815 86.1162 112.436C85.6763 112.057 85.316 111.594 85.0564 111.075C84.7968 110.555 84.643 109.989 84.6039 109.41C84.547 108.834 84.6065 108.253 84.7787 107.701C84.9509 107.149 85.2324 106.638 85.6064 106.197C85.9804 105.756 86.4393 105.395 86.9557 105.135C87.4721 104.875 88.0355 104.722 88.6124 104.684C91.735 104.586 93.1394 106.284 93.337 108.696Z" fill="#E98862"/>
<g opacity="0.15">
<path opacity="0.15" d="M103.301 111.901C103.216 111.901 103.134 111.87 103.069 111.814C103.004 111.759 102.962 111.681 102.949 111.597C102.937 111.512 102.955 111.426 103 111.354C103.046 111.282 103.116 111.228 103.197 111.203L105.299 110.558L103.829 107.282C103.791 107.196 103.789 107.099 103.823 107.011C103.857 106.924 103.924 106.853 104.009 106.815C104.095 106.776 104.192 106.773 104.28 106.806C104.368 106.839 104.439 106.905 104.479 106.99L106.115 110.633C106.136 110.679 106.146 110.73 106.146 110.78C106.146 110.831 106.136 110.881 106.115 110.927C106.094 110.973 106.064 111.014 106.026 111.048C105.988 111.081 105.943 111.106 105.895 111.12L103.407 111.885C103.373 111.896 103.337 111.901 103.301 111.901Z" fill="black"/>
</g>
<path d="M159.261 420.281L144.388 418.512C145.057 412.881 145.814 406.118 145.866 405.009C145.866 405.08 145.866 405.138 145.866 405.183H160.844C160.84 405.632 160.84 407.002 159.261 420.281Z" fill="#E98862"/>
<path d="M92.4471 422.072L77.4688 422.023C77.4688 422.023 77.5187 406.553 77.5187 405.187H92.497C92.497 406.558 92.4471 422.072 92.4471 422.072Z" fill="#E98862"/>
<path d="M138.751 418.359L164.435 412.295C147.805 346.998 133.851 280.348 120.336 214.345L120.145 214.401L119.588 210.599L65.3261 207.247C65.3261 207.247 63.2134 233.826 63.2148 242.703C63.2198 286.225 70.1398 358.583 73.5777 416.483L99.9338 415.132C98.3832 358.987 94.1943 302.76 94.4953 246.599C110.277 303.418 126.017 360.844 138.751 418.359Z" fill="#262626"/>
<path d="M110.655 427.867C111.058 427.865 111.456 427.78 111.824 427.617C112.193 427.455 112.524 427.218 112.797 426.921C113.07 426.625 113.278 426.275 113.41 425.895C113.542 425.514 113.593 425.11 113.562 424.708C113.519 424.151 113.317 423.619 112.981 423.173C112.645 422.727 112.189 422.386 111.666 422.191L94.2322 416.348C93.8945 416.236 93.5367 416.199 93.1831 416.238C92.8296 416.277 92.4887 416.392 92.1837 416.575C89.787 418.239 86.92 419.089 84.0042 419.001C81.733 418.84 79.5528 418.043 77.7125 416.702C77.5508 416.57 77.3547 416.486 77.1471 416.461C76.9396 416.436 76.7291 416.47 76.5402 416.559C76.3514 416.649 76.1919 416.791 76.0803 416.968C75.9688 417.144 75.9098 417.349 75.9102 417.559V426.085C75.9102 426.337 75.9598 426.586 76.0563 426.818C76.1528 427.05 76.2942 427.261 76.4724 427.439C76.6506 427.616 76.8621 427.757 77.0947 427.853C77.3274 427.948 77.5766 427.997 77.8281 427.996L110.655 427.867Z" fill="#C1D8ED"/>
<path d="M177.51 427.867C177.913 427.865 178.311 427.78 178.68 427.617C179.048 427.455 179.379 427.218 179.652 426.921C179.925 426.625 180.134 426.275 180.266 425.895C180.398 425.514 180.45 425.11 180.418 424.708C180.375 424.152 180.173 423.619 179.837 423.173C179.501 422.727 179.045 422.386 178.522 422.191L161.088 416.348C160.75 416.236 160.392 416.199 160.039 416.238C159.685 416.277 159.344 416.392 159.039 416.575C156.643 418.239 153.775 419.089 150.86 419.001C148.589 418.84 146.409 418.043 144.569 416.702C144.407 416.57 144.211 416.486 144.003 416.46C143.795 416.435 143.585 416.469 143.396 416.559C143.207 416.649 143.047 416.79 142.936 416.967C142.824 417.144 142.765 417.349 142.766 417.559V426.085C142.766 426.337 142.815 426.586 142.912 426.818C143.008 427.05 143.15 427.261 143.328 427.439C143.506 427.616 143.718 427.757 143.95 427.853C144.183 427.948 144.432 427.997 144.684 427.996L177.51 427.867Z" fill="#C1D8ED"/>
<path d="M158.361 141.527C158.361 141.527 159.503 133.037 165.527 134.216C169.328 134.961 187.652 136.33 187.721 138.025C187.893 142.216 171.102 141.191 169.126 144.834L158.361 141.527Z" fill="#E98862"/>
<path d="M163.341 134.227C163.341 134.227 172.137 132.498 174.156 133.245C175.943 133.906 171.742 136.437 171.742 136.437L163.341 134.227Z" fill="#E98862"/>
<path d="M29.3614 141.527C29.3614 141.527 28.2202 133.037 22.1961 134.216C18.3951 134.961 0.0716594 136.333 0.000334045 138.025C-0.17156 142.216 16.6191 141.191 18.5956 144.834L29.3614 141.527Z" fill="#E98862"/>
<path d="M24.3819 134.227C24.3819 134.227 15.5861 132.498 13.5668 133.245C11.7794 133.906 15.9805 136.437 15.9805 136.437L24.3819 134.227Z" fill="#E98862"/>
<path d="M106.237 116.753C106.237 116.753 102.468 116.04 99.7266 116.753C99.7266 116.753 99.9534 114.25 102.982 114.25C106.01 114.25 106.237 116.753 106.237 116.753Z" fill="white"/>
<path d="M158.334 136.532L137.607 167.701L121.345 137.182L121.185 137.266C118.973 133.414 114.979 130.931 108.111 130.635C107.661 130.614 106.941 130.6 106.014 130.585C105.828 134.509 81.5348 134.495 81.0212 130.493C74.1597 130.5 68.5322 132.604 65.2726 135.865C63.9563 137.165 62.902 138.706 62.1671 140.405L45.9049 168.41L28.0843 135.743L14.4326 143.195L38.873 187.984C39.5335 189.195 40.5042 190.209 41.6855 190.921C42.8668 191.633 44.2163 192.018 45.5954 192.036H45.6988C47.0604 192.036 48.3982 191.678 49.5782 190.999C50.7582 190.319 51.7391 189.341 52.4226 188.163L65.0158 166.476C66.5072 171.554 67.8296 176.593 67.8296 181.231C67.8296 196.22 61.0537 202.933 61.553 210.624C62.3376 222.709 121.06 219.855 124.048 212.985C127.13 205.908 120.874 201.542 121.152 178.385C121.181 175.936 121.366 173.377 121.621 170.771L130.007 186.513C130.64 187.701 131.57 188.704 132.707 189.425C133.844 190.146 135.148 190.559 136.492 190.624C136.619 190.63 136.745 190.633 136.87 190.633C138.152 190.633 139.413 190.316 140.543 189.711C141.672 189.105 142.634 188.23 143.344 187.163L171.283 145.147L158.334 136.532Z" fill="#367CFF"/>
<path d="M106.016 130.585C105.83 134.509 103.698 140.281 97.1144 140.716C88.3414 141.294 81.537 134.495 81.0234 130.493H81.0448C89.6823 130.493 100.98 130.507 106.016 130.585Z" fill="#E98862"/>
<path d="M744.53 423.47C758.656 419.091 772.363 413.369 784.851 397.353C787.414 394.072 789.822 389.867 788.417 385.939C787.361 382.982 784.303 381.087 781.197 380.605C780.039 380.437 778.866 380.404 777.702 380.509C777.696 380.509 777.689 380.513 777.688 380.509C775.898 380.693 774.128 381.04 772.401 381.547L771.907 381.69C763.665 384.033 755.813 387.58 748.606 392.216C747.953 392.632 747.178 392.815 746.408 392.735C745.638 392.655 744.917 392.317 744.363 391.776C743.81 391.234 743.455 390.521 743.358 389.753C743.26 388.984 743.426 388.206 743.827 387.543C744.562 386.342 745.418 385.218 746.38 384.19C747.8 382.705 749.356 381.356 751.027 380.16C753.248 378.54 755.618 377.092 757.936 375.613C766.556 370.122 774.723 363.949 782.358 357.153C787.808 352.298 793.137 346.909 795.727 340.083C796.917 336.944 797.459 333.325 796.039 330.282C793.696 325.289 787.062 323.889 781.636 324.925C772.128 326.747 764.533 333.717 757.798 340.666C752.212 346.44 745.953 352.832 737.928 353.187C736.561 353.315 735.185 353.039 733.973 352.393C731.683 351.006 731.095 347.793 731.911 345.242C732.726 342.691 734.615 340.653 736.437 338.695C747.03 327.328 757.453 315.504 764.332 301.577C771.21 287.65 774.256 271.206 769.476 256.418C768.076 252.094 765.97 247.888 762.685 244.748C759.401 241.607 754.794 239.638 750.285 240.239C744.142 241.048 739.515 246.232 736.403 251.588C725.704 269.961 726.357 292.473 723.344 313.519C722.501 319.411 721.275 325.453 717.766 330.303C717.443 330.769 717.023 331.161 716.536 331.452C713.649 333.124 711.057 329.752 709.974 326.89C705.694 315.569 704.624 302.622 696.962 293.252C694.038 289.685 689.901 286.704 685.29 286.734C679.659 286.772 674.837 291.476 673.194 296.864C671.552 302.252 672.534 308.105 674.294 313.454C677.562 323.375 683.424 332.289 690.322 340.121C693.96 344.259 698.076 348.437 699.167 353.832C699.501 355.666 699.361 357.555 698.76 359.32C698.159 361.085 697.118 362.667 695.734 363.916C695.087 364.479 694.333 364.906 693.518 365.173C692.702 365.44 691.842 365.54 690.987 365.468C689.139 365.298 687.466 364.355 685.852 363.439C685.175 363.054 684.496 362.662 683.814 362.279C681.123 360.747 678.431 359.212 675.739 357.676C668.892 353.771 660.632 349.781 653.503 353.144C649.865 354.863 647.482 358.243 646.361 362.123C645.358 365.643 645.358 369.375 646.361 372.895C648.485 380.217 661.868 400.591 667.388 405.846C673.838 411.98 696.194 438.454 744.53 423.47Z" fill="#8DDBE0"/>
<path d="M274.419 111.67C274.196 112.119 273.966 112.566 273.738 113.014C273.118 114.23 272.478 115.44 271.818 116.647C271.604 117.037 271.396 117.431 271.176 117.819C270.309 119.37 269.41 120.913 268.48 122.448C268.374 122.621 268.266 122.793 268.159 122.965C267.182 124.557 266.178 126.141 265.13 127.713L230.373 180.313H260.705L295.462 127.713C296.508 126.144 297.512 124.558 298.488 122.968C298.595 122.794 298.706 122.621 298.812 122.446C298.883 122.334 298.954 122.223 299.019 122.111C299.88 120.689 300.704 119.258 301.508 117.818C301.722 117.43 301.932 117.038 302.146 116.649C302.806 115.442 303.448 114.229 304.071 113.01C304.299 112.564 304.527 112.119 304.75 111.671C305.53 110.102 306.29 108.522 307.004 106.933H276.671C275.958 108.522 275.199 110.099 274.419 111.67Z" fill="#9EBCEA"/>
<path d="M345.529 60.959H315.198V180.313H338.016V211.491H315.198V250.842H345.529V211.491H368.348V180.313H345.529V60.959Z" fill="#9EBCEA"/>
<path d="M426.658 221.002C426.901 221.022 427.148 221.036 427.395 221.049C427.563 221.057 427.727 221.075 427.894 221.08C428.166 221.089 428.44 221.093 428.716 221.093H459.05C458.601 221.093 458.164 221.071 457.727 221.049C457.479 221.036 457.232 221.022 456.988 221.002C456.679 220.977 456.373 220.943 456.07 220.905C455.835 220.877 455.598 220.848 455.367 220.813C455.033 220.761 454.705 220.699 454.379 220.634C454.207 220.599 454.033 220.568 453.863 220.529C453.441 220.432 453.026 220.32 452.617 220.198C452.546 220.178 452.475 220.163 452.407 220.141C451.921 219.99 451.446 219.821 450.981 219.633C450.846 219.58 450.718 219.516 450.585 219.459C450.264 219.322 449.943 219.181 449.635 219.027C449.118 218.77 448.613 218.493 448.123 218.189C448.077 218.16 448.034 218.127 447.989 218.098C447.546 217.817 447.114 217.516 446.692 217.196C446.464 217.022 446.243 216.835 446.021 216.65C445.851 216.507 445.677 216.371 445.51 216.222C445.277 216.013 445.052 215.788 444.825 215.566C444.675 215.418 444.519 215.277 444.372 215.123C444.125 214.864 443.888 214.588 443.65 214.314C443.532 214.177 443.409 214.05 443.293 213.91C442.944 213.487 442.605 213.047 442.277 212.586C441.949 212.126 441.635 211.645 441.323 211.147C441.22 210.98 441.124 210.801 441.024 210.631C440.823 210.291 440.622 209.951 440.429 209.594C440.316 209.38 440.208 209.156 440.098 208.938C439.929 208.606 439.76 208.276 439.598 207.93C439.484 207.686 439.377 207.431 439.267 207.179C439.091 206.779 438.91 206.384 438.747 205.966C438.524 205.405 438.308 204.816 438.097 204.214C438.049 204.074 438.002 203.934 437.954 203.794C437.749 203.191 437.548 202.572 437.355 201.929C437.331 201.852 437.309 201.77 437.283 201.691C437.107 201.099 436.937 200.488 436.772 199.863C436.732 199.711 436.691 199.561 436.652 199.407C436.475 198.719 436.304 198.012 436.138 197.287C436.108 197.152 436.079 197.014 436.049 196.879C435.906 196.224 435.766 195.553 435.628 194.867C435.598 194.719 435.568 194.574 435.539 194.425C435.444 193.926 435.355 193.408 435.263 192.895C435.192 192.482 435.113 192.077 435.044 191.653C434.958 191.138 434.88 190.6 434.799 190.067C434.733 189.639 434.665 189.22 434.603 188.783C434.524 188.222 434.452 187.638 434.377 187.06C434.321 186.627 434.262 186.204 434.209 185.762C434.138 185.151 434.07 184.514 434.002 183.885C433.955 183.451 433.905 183.029 433.86 182.585C433.788 181.888 433.728 181.166 433.665 180.445C433.629 180.048 433.594 179.66 433.558 179.259C433.487 178.415 433.427 177.543 433.367 176.67C433.345 176.369 433.321 176.08 433.301 175.776C433.224 174.591 433.154 173.38 433.091 172.144C433.079 171.898 433.07 171.639 433.059 171.39C433.011 170.392 432.965 169.386 432.927 168.355C432.927 168.239 432.921 168.119 432.917 168.003C432.879 166.941 432.847 165.862 432.82 164.763C432.812 164.386 432.804 164.004 432.795 163.622C432.777 162.727 432.761 161.822 432.749 160.905C432.744 160.523 432.739 160.144 432.735 159.759C432.722 158.49 432.713 157.206 432.713 155.894C432.713 154.529 432.722 153.19 432.735 151.87C432.74 151.442 432.748 151.022 432.755 150.597C432.768 149.714 432.781 148.835 432.8 147.972C432.81 147.482 432.824 147.002 432.837 146.52C432.857 145.735 432.88 144.956 432.908 144.189C432.925 143.699 432.943 143.216 432.962 142.734C432.992 141.986 433.024 141.247 433.059 140.517C433.081 140.051 433.102 139.584 433.126 139.125C433.166 138.374 433.211 137.637 433.256 136.905C433.282 136.496 433.305 136.081 433.332 135.678C433.392 134.798 433.457 133.938 433.525 133.086C433.544 132.852 433.56 132.61 433.579 132.379C433.67 131.296 433.767 130.236 433.872 129.199C433.886 129.056 433.902 128.918 433.917 128.776C434.004 127.93 434.096 127.102 434.193 126.286C434.221 126.051 434.249 125.817 434.278 125.584C434.391 124.667 434.509 123.764 434.634 122.886C434.649 122.784 434.665 122.686 434.68 122.584C434.795 121.796 434.915 121.024 435.041 120.269C435.076 120.055 435.112 119.841 435.148 119.627C435.29 118.799 435.433 117.986 435.59 117.195C435.602 117.134 435.615 117.076 435.627 117.015C435.77 116.281 435.924 115.566 436.081 114.866C436.123 114.673 436.167 114.481 436.21 114.291C436.329 113.777 436.453 113.28 436.577 112.785C436.653 112.485 436.728 112.178 436.805 111.885C436.937 111.385 437.075 110.909 437.213 110.432C437.285 110.192 437.35 109.944 437.421 109.71C437.618 109.059 437.821 108.429 438.032 107.819C438.049 107.772 438.063 107.721 438.079 107.676C438.317 106.992 438.563 106.333 438.816 105.699C439.043 105.129 439.281 104.582 439.525 104.045C439.596 103.891 439.668 103.74 439.739 103.589C439.932 103.18 440.129 102.781 440.332 102.39C440.399 102.263 440.464 102.131 440.531 102.006C440.795 101.515 441.066 101.038 441.347 100.579C441.418 100.464 441.489 100.356 441.561 100.243C441.786 99.8864 442.014 99.5354 442.25 99.1979C442.357 99.0431 442.464 98.8947 442.577 98.7442C442.788 98.456 443.002 98.1751 443.219 97.9016C443.337 97.754 443.455 97.6077 443.576 97.4643C443.807 97.1897 444.043 96.925 444.283 96.666C444.391 96.5483 444.497 96.4263 444.609 96.3093C445.296 95.5972 446.035 94.9373 446.82 94.3353C446.943 94.2411 447.069 94.1548 447.194 94.0649C447.464 93.868 447.738 93.6768 448.018 93.4942C448.165 93.3993 448.313 93.308 448.462 93.2174C448.735 93.0519 449.013 92.8937 449.295 92.743C449.443 92.6638 449.59 92.5832 449.739 92.5082C450.066 92.3442 450.4 92.1929 450.738 92.0488C450.845 92.0031 450.952 91.9518 451.057 91.9061C451.503 91.7259 451.958 91.5618 452.421 91.4139C452.534 91.3782 452.65 91.3504 452.764 91.3161C453.12 91.2098 453.481 91.1107 453.848 91.0243C454.017 90.9844 454.188 90.953 454.358 90.9145C454.684 90.8467 455.015 90.7846 455.348 90.7318C455.529 90.7033 455.711 90.6755 455.893 90.6505C456.244 90.6041 456.6 90.5678 456.959 90.5371C457.124 90.5228 457.286 90.505 457.453 90.4943C457.978 90.4607 458.509 90.4401 459.051 90.4401H428.719C428.177 90.4401 427.649 90.4607 427.121 90.4943C426.954 90.505 426.792 90.5228 426.627 90.5371C426.271 90.5678 425.914 90.6041 425.562 90.6505C425.378 90.6755 425.197 90.7033 425.017 90.7318C424.683 90.7846 424.353 90.8467 424.027 90.9145C423.856 90.9501 423.685 90.9858 423.517 91.0243C423.149 91.1107 422.788 91.2098 422.432 91.3161C422.318 91.3497 422.202 91.3782 422.089 91.4139C421.626 91.5613 421.171 91.7254 420.726 91.9061C420.617 91.9504 420.512 92.0017 420.404 92.0488C420.068 92.1915 419.736 92.3434 419.41 92.5068C419.259 92.5824 419.112 92.6631 418.964 92.743C418.682 92.8937 418.405 93.0519 418.13 93.2174C417.983 93.3073 417.834 93.3986 417.688 93.4935C417.408 93.674 417.134 93.8652 416.863 94.0642C416.739 94.1548 416.612 94.2418 416.49 94.3353C416.105 94.6292 415.727 94.936 415.361 95.2627L415.354 95.2677C414.986 95.5966 414.629 95.9462 414.278 96.3086C414.167 96.4242 414.059 96.5462 413.95 96.6653C413.712 96.9236 413.476 97.1868 413.246 97.4608C413.125 97.6034 413.006 97.7533 412.889 97.9016C412.672 98.1737 412.458 98.4534 412.247 98.7406C412.138 98.8919 412.026 99.041 411.919 99.1965C411.684 99.5332 411.456 99.8821 411.232 100.239C411.16 100.353 411.085 100.461 411.018 100.578C411.001 100.604 410.985 100.628 410.968 100.654C410.705 101.089 410.451 101.541 410.203 102.004C410.135 102.131 410.07 102.262 410.003 102.39C409.801 102.78 409.603 103.179 409.411 103.588C409.34 103.739 409.269 103.889 409.197 104.043C408.953 104.581 408.715 105.129 408.484 105.698C408.46 105.758 408.436 105.82 408.413 105.882C408.186 106.459 407.964 107.057 407.75 107.676C407.735 107.715 407.723 107.757 407.71 107.797C407.497 108.415 407.291 109.053 407.09 109.71C407.019 109.943 406.954 110.191 406.884 110.429C406.746 110.907 406.608 111.388 406.475 111.887C406.398 112.178 406.324 112.481 406.249 112.78C406.166 113.109 406.08 113.426 405.999 113.764C405.959 113.937 405.921 114.121 405.88 114.294C405.837 114.482 405.794 114.672 405.752 114.862C405.594 115.567 405.441 116.288 405.295 117.027C405.284 117.082 405.272 117.136 405.261 117.192C405.106 117.984 404.96 118.8 404.817 119.632C404.782 119.841 404.746 120.053 404.712 120.264C404.586 121.022 404.466 121.796 404.35 122.586C404.335 122.688 404.319 122.785 404.305 122.888C404.179 123.766 404.061 124.671 403.948 125.59C403.919 125.818 403.893 126.05 403.865 126.281C403.77 127.095 403.678 127.924 403.589 128.767C403.573 128.914 403.557 129.056 403.542 129.204L403.525 129.365C403.426 130.349 403.335 131.354 403.25 132.379C403.231 132.611 403.215 132.853 403.196 133.086C403.125 133.938 403.063 134.799 403.004 135.678C402.976 136.081 402.952 136.494 402.927 136.901C402.882 137.637 402.837 138.377 402.797 139.132C402.773 139.586 402.752 140.048 402.726 140.509C402.691 141.243 402.659 141.985 402.629 142.737C402.61 143.218 402.592 143.702 402.576 144.189C402.549 144.956 402.527 145.735 402.504 146.521C402.491 147.003 402.478 147.484 402.467 147.973C402.449 148.836 402.434 149.715 402.422 150.598C402.416 151.026 402.408 151.441 402.403 151.871C402.389 153.191 402.381 154.53 402.381 155.895C402.381 157.206 402.389 158.49 402.402 159.76C402.406 160.145 402.412 160.524 402.417 160.905C402.428 161.822 402.444 162.728 402.463 163.623C402.471 164.004 402.479 164.386 402.488 164.764C402.515 165.86 402.547 166.941 402.584 168.004C402.588 168.12 402.591 168.24 402.595 168.355C402.595 168.382 402.595 168.409 402.595 168.435C402.632 169.442 402.677 170.422 402.723 171.399C402.735 171.644 402.744 171.898 402.756 172.145C402.818 173.382 402.888 174.592 402.966 175.777C402.986 176.096 403.012 176.399 403.037 176.715C403.097 177.571 403.156 178.427 403.225 179.256C403.26 179.689 403.302 180.103 403.339 180.528C403.4 181.216 403.46 181.91 403.526 182.579C403.573 183.04 403.625 183.481 403.674 183.934C403.74 184.546 403.804 185.163 403.875 185.758C403.929 186.213 403.99 186.647 404.047 187.093C404.118 187.658 404.19 188.23 404.269 188.78C404.332 189.224 404.401 189.648 404.466 190.082C404.547 190.609 404.625 191.143 404.71 191.652C404.781 192.08 404.857 192.484 404.93 192.9C405.004 193.316 405.073 193.761 405.155 194.174C405.171 194.258 405.189 194.339 405.205 194.423C405.234 194.573 405.265 194.719 405.294 194.867C405.429 195.552 405.57 196.222 405.715 196.876C405.745 197.011 405.774 197.15 405.804 197.285C405.969 198.013 406.14 198.72 406.318 199.407C406.357 199.56 406.398 199.71 406.438 199.861C406.603 200.486 406.773 201.098 406.949 201.69C406.972 201.768 406.994 201.85 407.02 201.928C407.213 202.57 407.414 203.189 407.62 203.793C407.668 203.936 407.717 204.073 407.762 204.212C407.976 204.814 408.19 205.403 408.413 205.964C408.466 206.098 408.519 206.23 408.573 206.361C408.689 206.642 408.814 206.906 408.934 207.18C409.044 207.429 409.148 207.685 409.264 207.927C409.426 208.275 409.596 208.606 409.763 208.939C409.874 209.153 409.977 209.38 410.093 209.591C410.287 209.948 410.49 210.293 410.692 210.637C410.791 210.804 410.886 210.98 410.986 211.144C411.292 211.636 411.606 212.112 411.929 212.571L411.943 212.591C412.271 213.051 412.61 213.49 412.957 213.912C413.074 214.055 413.197 214.182 413.314 214.319C413.55 214.592 413.786 214.867 414.033 215.125C414.179 215.278 414.334 215.419 414.484 215.567C414.711 215.79 414.937 216.015 415.17 216.224C415.337 216.373 415.51 216.509 415.681 216.652C415.864 216.805 416.043 216.967 416.231 217.113C416.27 217.143 416.313 217.167 416.352 217.197C416.774 217.518 417.207 217.819 417.65 218.1C417.694 218.129 417.737 218.162 417.782 218.191C418.273 218.496 418.781 218.772 419.295 219.029C419.33 219.046 419.362 219.068 419.398 219.086C419.674 219.221 419.96 219.339 420.244 219.46C420.377 219.517 420.506 219.582 420.642 219.636C421.099 219.82 421.569 219.988 422.042 220.136L422.066 220.142C422.137 220.164 422.209 220.18 422.28 220.201C422.689 220.323 423.103 220.434 423.525 220.531C423.695 220.569 423.869 220.602 424.04 220.634C424.276 220.683 424.509 220.738 424.753 220.777C424.845 220.792 424.94 220.799 425.032 220.813C425.263 220.849 425.5 220.878 425.736 220.906C426.044 220.944 426.348 220.977 426.658 221.002Z" fill="#9EBCEA"/>
<path d="M524.837 174.097C524.918 172.943 524.98 171.758 525.045 170.577C525.088 169.798 525.139 169.032 525.175 168.242C525.234 166.91 525.272 165.545 525.313 164.181C525.332 163.51 525.362 162.856 525.377 162.176C525.422 160.117 525.446 158.024 525.448 155.898C525.448 154.067 525.425 152.268 525.389 150.487C525.377 149.932 525.359 149.386 525.344 148.835C525.323 148.06 525.309 147.276 525.281 146.512C525.261 145.982 525.232 145.464 525.209 144.938C525.192 144.537 525.175 144.134 525.155 143.735C525.075 142.083 524.981 140.45 524.87 138.845C524.856 138.635 524.836 138.429 524.821 138.219C524.715 136.786 524.593 135.371 524.458 133.976C524.423 133.6 524.387 133.223 524.349 132.85C524.192 131.309 524.022 129.783 523.831 128.29C523.804 128.072 523.771 127.859 523.742 127.641C523.569 126.318 523.381 125.014 523.18 123.729C523.126 123.383 523.073 123.034 523.017 122.691C522.799 121.35 522.57 120.022 522.323 118.723C522.306 118.629 522.286 118.539 522.268 118.446C522.229 118.244 522.186 118.046 522.147 117.845C521.9 116.596 521.64 115.366 521.366 114.156C521.304 113.881 521.245 113.604 521.181 113.331C520.873 112.011 520.55 110.713 520.21 109.438C520.139 109.178 520.068 108.922 519.996 108.664C519.681 107.513 519.351 106.38 519.008 105.266C518.952 105.082 518.899 104.895 518.841 104.711C518.457 103.488 518.055 102.289 517.635 101.114C517.541 100.846 517.443 100.581 517.346 100.316C516.926 99.1601 516.49 98.0208 516.039 96.9107C516.024 96.875 516.011 96.8394 515.995 96.8001C515.995 96.7894 515.987 96.7773 515.982 96.7659C515.681 96.0346 515.358 95.3348 515.043 94.6257C514.812 94.1041 514.593 93.5662 514.355 93.0561C513.999 92.2964 513.623 91.5687 513.251 90.8324C513.028 90.3894 512.816 89.9293 512.586 89.4948C512.158 88.6858 511.707 87.9096 511.258 87.1305C511.065 86.7945 510.883 86.4428 510.688 86.1125C510.033 85.0153 509.356 83.948 508.657 82.9107C508.034 81.9833 507.389 81.0958 506.731 80.2218C506.581 80.0221 506.43 79.8216 506.278 79.624C505.625 78.7758 504.959 77.9468 504.274 77.1478C504.185 77.0443 504.093 76.9459 504.004 76.8431C503.375 76.1211 502.733 75.4211 502.078 74.7428C501.923 74.5809 501.768 74.4168 501.612 74.2577C500.89 73.5262 500.153 72.8192 499.4 72.1367C499.258 72.0048 499.106 71.8792 498.96 71.7494C498.281 71.1472 497.589 70.5649 496.883 70.0022C496.741 69.8895 496.604 69.7725 496.462 69.6619C496.387 69.6034 496.316 69.5413 496.241 69.4836C495.489 68.9028 494.72 68.3485 493.94 67.8113C493.747 67.6786 493.548 67.5559 493.354 67.4261C492.677 66.9738 491.99 66.5372 491.292 66.1162C491.007 65.946 490.722 65.7795 490.436 65.6169C489.762 65.2288 489.077 64.8556 488.382 64.4975C488.135 64.3698 487.891 64.2357 487.641 64.1116C487.54 64.0616 487.443 64.006 487.341 63.956C486.557 63.5715 485.75 63.2119 484.938 62.8638C484.756 62.786 484.573 62.7097 484.389 62.6334C483.436 62.2381 482.471 61.8614 481.486 61.5162C481.389 61.4819 481.29 61.452 481.193 61.4184C480.676 61.2408 480.16 61.0617 479.635 60.9005C479.179 60.7578 478.715 60.628 478.252 60.496C478.126 60.4596 478.002 60.4204 477.875 60.3854C476.857 60.1 475.819 59.8489 474.768 59.6156C474.575 59.5728 474.382 59.53 474.188 59.4886C473.295 59.2996 472.395 59.1212 471.477 58.9678C471.33 58.9436 471.18 58.9258 471.033 58.9015C470.813 58.8665 470.589 58.8359 470.367 58.8023C469.368 58.6516 468.354 58.5213 467.325 58.4114C467.179 58.3957 467.034 58.3764 466.886 58.3614C465.761 58.2494 464.615 58.1674 463.457 58.1053C463.195 58.0918 462.931 58.0796 462.667 58.0682C462.346 58.054 462.025 58.0326 461.704 58.0226C460.83 57.995 459.947 57.9812 459.055 57.9812H428.719C429.942 57.9812 431.144 58.0162 432.332 58.0682C432.596 58.0796 432.86 58.0918 433.121 58.1053C434.279 58.1674 435.425 58.248 436.55 58.3614C436.698 58.3764 436.842 58.3957 436.99 58.4114C438.018 58.5203 439.032 58.6506 440.032 58.8023C440.253 58.8359 440.476 58.8665 440.698 58.9015C441.764 59.0732 442.815 59.2689 443.851 59.4886C444.046 59.53 444.238 59.5728 444.431 59.6156C445.483 59.8489 446.521 60.1022 447.541 60.3861C447.665 60.4204 447.787 60.4575 447.912 60.4946C448.911 60.7799 449.892 61.0879 450.856 61.4184C450.953 61.452 451.052 61.4819 451.15 61.5162C452.135 61.8614 453.1 62.2381 454.053 62.6341C454.236 62.7097 454.419 62.786 454.601 62.8638C455.518 63.2562 456.419 63.6721 457.304 64.1116C457.554 64.2364 457.798 64.3698 458.046 64.4975C458.74 64.8561 459.425 65.2295 460.1 65.6176C460.386 65.7824 460.671 65.9486 460.956 66.117C461.656 66.5379 462.345 66.9757 463.025 67.4304C463.217 67.5588 463.415 67.6808 463.606 67.812C464.465 68.4027 465.306 69.021 466.13 69.6669C466.273 69.7775 466.407 69.8931 466.548 70.0043C467.254 70.5675 467.946 71.1501 468.625 71.7522C468.772 71.8828 468.922 72.0098 469.068 72.1417C469.82 72.8228 470.557 73.5296 471.279 74.262C471.436 74.4211 471.59 74.5845 471.745 74.7464C472.4 75.427 473.042 76.1276 473.671 76.8481C473.76 76.9509 473.853 77.0486 473.942 77.152C474.626 77.9503 475.292 78.7793 475.945 79.6276C476.098 79.8259 476.248 80.0264 476.399 80.2268C477.055 81.1001 477.7 81.9897 478.325 82.915C479.023 83.9523 479.7 85.0195 480.355 86.1168C480.569 86.4735 480.768 86.8587 480.977 87.2247C481.409 87.9752 481.843 88.7229 482.255 89.4976C482.515 89.9906 482.754 90.5114 483.009 91.0158C483.349 91.6942 483.697 92.3606 484.023 93.059C484.282 93.614 484.522 94.2005 484.772 94.7662C485.07 95.4439 485.378 96.1096 485.664 96.8051C485.68 96.8458 485.695 96.8872 485.712 96.9271C486.164 98.0329 486.595 99.1687 487.014 100.319C487.112 100.587 487.209 100.854 487.305 101.124C487.723 102.3 488.124 103.497 488.509 104.717C488.568 104.902 488.622 105.091 488.679 105.278C489.022 106.388 489.35 107.518 489.664 108.668C489.735 108.928 489.806 109.185 489.878 109.447C490.217 110.721 490.541 112.018 490.849 113.338C490.912 113.612 490.972 113.89 491.035 114.166C491.307 115.376 491.567 116.604 491.814 117.85C491.854 118.053 491.896 118.25 491.936 118.453C492.203 119.844 492.453 121.258 492.684 122.697C492.74 123.042 492.793 123.391 492.848 123.739C493.048 125.023 493.235 126.324 493.409 127.64C493.438 127.861 493.47 128.078 493.499 128.301C493.689 129.793 493.86 131.314 494.016 132.853C494.055 133.23 494.087 133.61 494.127 133.989C494.26 135.381 494.38 136.79 494.488 138.217C494.504 138.431 494.523 138.64 494.538 138.859C494.652 140.461 494.746 142.092 494.823 143.741C494.843 144.144 494.861 144.55 494.878 144.953C494.933 146.233 494.975 147.532 495.011 148.839C495.026 149.392 495.045 149.939 495.056 150.497C495.092 152.28 495.116 154.075 495.116 155.906C495.116 158.036 495.092 160.129 495.045 162.184C495.03 162.864 495 163.519 494.98 164.19C494.94 165.553 494.902 166.919 494.841 168.251C494.806 169.041 494.754 169.806 494.712 170.586C494.647 171.766 494.586 172.951 494.505 174.106C494.448 174.921 494.375 175.713 494.311 176.516C494.222 177.599 494.137 178.686 494.034 179.746C493.955 180.558 493.863 181.347 493.775 182.145C493.664 183.164 493.553 184.185 493.428 185.183C493.327 185.98 493.214 186.758 493.105 187.541C492.97 188.504 492.835 189.467 492.687 190.406C492.565 191.18 492.432 191.939 492.301 192.7C492.142 193.614 491.983 194.524 491.811 195.416C491.669 196.164 491.515 196.899 491.362 197.632C491.181 198.503 490.995 199.367 490.8 200.216C490.61 201.046 490.413 201.866 490.21 202.676C490.078 203.2 489.948 203.726 489.812 204.242C489.565 205.169 489.306 206.079 489.043 206.98C488.919 207.408 488.801 207.836 488.672 208.255C488.275 209.558 487.862 210.837 487.427 212.081C487.415 212.115 487.401 212.147 487.389 212.181C486.964 213.392 486.521 214.574 486.059 215.727C485.924 216.067 485.78 216.395 485.642 216.73C485.302 217.55 484.957 218.361 484.599 219.155C484.422 219.547 484.242 219.932 484.061 220.317C483.714 221.052 483.36 221.773 482.996 222.481C482.812 222.838 482.63 223.203 482.442 223.556C482.014 224.357 481.575 225.14 481.125 225.905C480.996 226.127 480.872 226.357 480.74 226.576C480.127 227.597 479.496 228.59 478.843 229.548C467.992 245.481 451.283 253.448 428.718 253.448H459.05C481.616 253.448 498.325 245.481 509.174 229.548C509.796 228.637 510.4 227.697 510.984 226.728C511.015 226.679 511.042 226.626 511.072 226.576C511.203 226.357 511.327 226.127 511.457 225.905C511.906 225.138 512.345 224.355 512.774 223.556C512.962 223.199 513.144 222.842 513.329 222.481C513.691 221.773 514.046 221.052 514.392 220.317C514.573 219.932 514.755 219.547 514.931 219.155C515.287 218.364 515.635 217.553 515.974 216.73C516.112 216.395 516.255 216.066 516.391 215.726C516.434 215.618 516.481 215.512 516.524 215.407C516.936 214.361 517.334 213.291 517.715 212.197C517.73 212.156 517.745 212.118 517.76 212.078C518.194 210.834 518.608 209.555 519.005 208.252C519.133 207.838 519.25 207.408 519.372 206.986C519.637 206.082 519.897 205.17 520.145 204.239C520.281 203.725 520.41 203.201 520.541 202.68C520.668 202.176 520.802 201.686 520.924 201.174C520.998 200.861 521.061 200.532 521.133 200.213C521.327 199.365 521.513 198.501 521.694 197.631C521.847 196.898 521.999 196.165 522.142 195.419C522.314 194.524 522.475 193.611 522.633 192.695C522.764 191.937 522.896 191.181 523.018 190.412C523.167 189.469 523.304 188.504 523.438 187.54C523.547 186.755 523.659 185.982 523.759 185.186C523.885 184.187 523.996 183.167 524.108 182.147C524.175 181.532 524.255 180.934 524.317 180.314C524.336 180.129 524.348 179.933 524.366 179.748C524.468 178.689 524.554 177.601 524.642 176.518C524.708 175.704 524.78 174.912 524.837 174.097Z" fill="#9EBCEA"/>
<path d="M599.247 111.673C599.022 112.124 598.791 112.574 598.561 113.028C597.943 114.237 597.306 115.439 596.652 116.637C596.432 117.038 596.218 117.441 595.994 117.842C595.127 119.393 594.229 120.935 593.3 122.469C593.204 122.629 593.103 122.786 593.005 122.945C592.026 124.545 591.013 126.135 589.967 127.717L555.21 180.317H585.541L620.298 127.717C621.349 126.135 622.358 124.543 623.339 122.942C623.435 122.784 623.535 122.628 623.631 122.471C623.691 122.372 623.754 122.274 623.813 122.176C624.682 120.739 625.514 119.293 626.326 117.842C626.549 117.441 626.763 117.039 626.983 116.638C627.639 115.439 628.275 114.235 628.893 113.026C629.123 112.577 629.354 112.128 629.577 111.678C630.362 110.108 631.12 108.527 631.838 106.938H601.506C600.79 108.523 600.029 110.101 599.247 111.673Z" fill="#9EBCEA"/>
<path d="M693.181 180.313H670.354V60.959H640.022V180.313H662.85V211.491H640.022V250.842H670.354V211.491H693.181V180.313Z" fill="#9EBCEA"/>
<path d="M315.198 180.313H338.016V211.489H315.198V250.84H276.029V211.491H195.104V183.561L278.24 60.959H315.201L315.198 180.313ZM276.671 124.727C277.108 114.512 277.455 108.581 277.71 106.934H276.671C273.402 114.166 269.542 121.116 265.13 127.713L230.374 180.313H276.029V148.105C276.029 142.745 276.243 134.953 276.671 124.728" fill="#DEE8F5"/>
<path d="M478.32 82.9057C489.519 99.5311 495.117 123.861 495.115 155.896C495.115 189.058 489.691 213.606 478.844 229.537C467.997 245.469 451.289 253.435 428.719 253.436C406.846 253.436 390.352 245.208 379.237 228.752C368.122 212.296 362.569 188.011 362.577 155.896C362.577 122.392 367.978 97.6955 378.781 81.8064C389.591 65.921 406.238 57.9765 428.719 57.9727C450.586 57.9727 467.12 66.2837 478.32 82.9057ZM448.944 205.772C453.102 195.557 455.177 178.932 455.171 155.896C455.171 132.607 453.076 115.874 448.886 105.699C444.696 95.5229 437.974 90.4384 428.719 90.4451C419.288 90.4451 412.543 95.5296 408.486 105.699C404.416 115.874 402.382 132.606 402.385 155.896C402.385 179.194 404.396 195.884 408.418 205.966C412.44 216.047 419.207 221.089 428.719 221.09C438.055 221.09 444.797 215.983 448.944 205.769" fill="#DEE8F5"/>
<path d="M640.023 180.313H662.847V211.489H640.023V250.84H600.856V211.491H519.929V183.561L603.061 60.959H640.023V180.313ZM601.507 124.727C601.935 114.512 602.282 108.581 602.546 106.934H601.507C598.231 114.163 594.372 121.112 589.967 127.713L555.21 180.313H600.858V148.105C600.858 142.745 601.075 134.953 601.509 124.728" fill="#DEE8F5"/>
</g>
<defs>
<clipPath id="clip0_453_1344">
<rect width="828" height="428" fill="white"/>
</clipPath>
</defs>
</svg>
